<?xml version="1.0" ?><svg data-name="Layer 1" id="Layer_1" viewBox="0 0 64 64" xmlns="http://www.w3.org/2000/svg"><path d="M30,17H18a1,1,0,0,0-1,1V30a1,1,0,0,0,1,1H30a1,1,0,0,0,1-1V18A1,1,0,0,0,30,17ZM29,29H19V19H29ZM46,17H34a1,1,0,0,0-1,1V30a1,1,0,0,0,1,1H46a1,1,0,0,0,1-1V18A1,1,0,0,0,46,17ZM45,29H35V19H45ZM30,33H18a1,1,0,0,0-1,1V46a1,1,0,0,0,1,1H30a1,1,0,0,0,1-1V34A1,1,0,0,0,30,33ZM29,45H19V35H29ZM46,33H34a1,1,0,0,0-1,1V46a1,1,0,0,0,1,1H46a1,1,0,0,0,1-1V34A1,1,0,0,0,46,33ZM45,45H35V35H45Z"/></svg>